<?xml version="1.0" encoding="UTF-8"?>
<svg width="908px" height="908px" viewBox="0 0 908 908" version="1.1" xmlns="http://www.w3.org/2000/svg" xmlns:xlink="http://www.w3.org/1999/xlink">
    <!-- Generator: Sketch 64 (93537) - https://sketch.com -->
    <title>Group 10</title>
    <desc>Created with Sketch.</desc>
    <defs>
        <circle id="path-1" cx="355" cy="355.630515" r="355"></circle>
        <path d="M197.603647,353.923233 C203.672817,354.165574 209.802678,353.529429 215.993231,352.014798 C222.183784,350.500167 228.2833,348.197929 234.291777,345.108082 C240.300255,342.018235 246.18735,338.171073 251.953061,333.566596 C257.718772,328.962118 263.150679,323.751788 268.248781,317.935606 C271.890283,313.81581 274.10553,309.968648 274.894522,306.39412 C275.683514,302.819591 275.592477,298.548332 274.62141,293.580343 C273.407576,295.3979 271.950975,297.518383 270.251607,299.941793 C268.55224,302.365202 266.670797,304.54627 264.60728,306.484998 C262.300995,308.666066 259.478831,310.907719 256.140788,313.209958 C252.802745,315.512197 249.221935,317.63268 245.398358,319.571407 C241.574781,321.510135 237.660167,323.085351 233.654515,324.297055 C229.648863,325.50876 225.885978,326.114612 222.365859,326.114612 C221.152025,326.114612 219.907845,326.08432 218.63332,326.023734 C217.358794,325.963149 216.175306,325.811686 215.082856,325.569345 C212.412421,324.963493 210.075791,323.751788 208.072965,321.934231 C206.070139,320.116674 204.431463,317.905314 203.156937,315.300149 C201.882412,312.694984 200.94169,309.7566 200.334773,306.484998 C199.727856,303.213395 199.545781,299.820622 199.788548,296.306679 C200.152698,291.096349 201.063074,286.00719 202.519674,281.039201 C203.976275,276.071212 205.888064,271.315271 208.25504,266.771379 C210.622016,262.227487 213.322796,257.925935 216.357381,253.866725 C219.391966,249.807515 222.608626,246.020938 226.007361,242.506994 C231.105463,244.688063 235.960799,246.505619 240.573368,247.959665 C245.185937,249.413711 249.859198,250.019563 254.59315,249.777222 C261.269236,249.656051 267.217023,248.444347 272.436509,246.142108 C277.655994,243.839869 281.874067,240.992363 285.090727,237.599591 C288.307387,234.206818 290.401251,230.571704 291.372318,226.694249 C292.343385,222.816794 291.888197,219.211973 290.006755,215.879785 C288.125312,212.547598 284.726577,209.730385 279.81055,207.428146 C274.894522,205.125907 268.127398,203.914202 259.509177,203.793032 C255.624909,203.793032 251.649603,204.156543 247.583259,204.883566 C243.516915,205.610589 239.420226,206.67083 235.29319,208.064291 C231.166155,209.457751 227.130157,211.093552 223.185197,212.971694 C219.240237,214.849837 215.447006,216.879442 211.805504,219.06051 C206.464635,215.667737 200.880999,212.396135 195.054596,209.245703 C189.228193,206.095271 182.67349,203.490106 175.390486,201.430208 C169.07855,199.733822 163.252147,198.915921 157.911278,198.976506 C152.570408,199.037091 147.654381,199.733822 143.163196,201.066697 C138.67201,202.399572 134.544975,204.217129 130.782089,206.519367 C127.019204,208.821606 123.559778,211.305601 120.403809,213.971351 C116.883691,217.000612 114.061527,220.423678 111.937318,224.240547 C109.813108,228.057417 108.356508,231.965164 107.567516,235.963789 C106.778524,239.962415 106.65714,243.930747 107.203366,247.868787 C107.749591,251.806827 108.963425,255.381356 110.844867,258.592373 C112.72631,261.80339 115.245015,264.438848 118.400983,266.498745 C121.556952,268.558643 125.380529,269.770348 129.871714,270.133859 C134.3629,270.497371 139.005814,270.103567 143.800458,268.952447 C148.595102,267.801328 153.025596,266.014064 157.09194,263.590654 C161.158283,261.167245 164.557018,258.107691 167.288145,254.411992 C170.019271,250.716293 171.566909,246.505619 171.93106,241.779971 C170.110309,243.718699 168.471633,245.172744 167.015032,246.142108 C165.558431,247.111472 164.192868,247.808202 162.918343,248.232299 C161.643817,248.656395 160.490675,248.807858 159.458916,248.686688 C158.427157,248.565517 157.547128,248.383762 156.818827,248.141421 C154.998076,247.293227 153.693205,245.960352 152.904213,244.142795 C152.115221,242.325239 151.781416,240.356219 151.9028,238.235736 C152.024183,236.115252 152.600754,233.964477 153.632513,231.783408 C154.664272,229.60234 156.120873,227.693905 158.002315,226.058104 C159.883758,224.422303 162.099005,223.210598 164.648056,222.42299 C167.197107,221.635382 170.049617,221.60509 173.205585,222.332113 C177.575387,223.301476 181.763114,224.422303 185.768766,225.694593 C189.774418,226.966883 193.597995,228.33005 197.239497,229.784096 C188.864043,237.054324 181.42931,245.081867 174.935299,253.866725 C168.441287,262.651583 163.282493,271.557612 159.458916,280.584812 C155.635339,289.612011 153.268363,298.427162 152.357988,307.030265 C151.447612,315.633367 152.388333,323.327692 155.180151,330.113237 C157.971969,336.898783 162.827305,342.442332 169.746158,346.743883 C176.665012,351.045435 185.950841,353.438551 197.603647,353.923233 Z M256.885733,236.973372 C253.212788,236.973372 249.754098,236.630882 246.509663,235.9459 C243.265228,235.260918 240.051401,234.233446 236.868182,232.863482 C242.132737,228.753592 247.152428,225.577768 251.927257,223.33601 C256.702086,221.094252 260.742326,219.973372 264.047976,219.973372 C267.965785,219.973372 270.842925,220.40927 272.679398,221.281065 C274.51587,222.15286 275.556538,223.211468 275.801401,224.456889 C276.046264,225.70231 275.617754,227.072274 274.51587,228.566779 C273.413987,230.061285 271.944809,231.431248 270.108336,232.676669 C268.271863,233.92209 266.190528,234.949563 263.864329,235.759087 C261.53813,236.568611 259.211932,236.973372 256.885733,236.973372 Z M291.09243,334.973372 C295.81683,334.851689 300.238383,333.756539 304.357091,331.687922 C308.475799,329.619304 312.231091,326.94227 315.622968,323.656819 C316.713214,326.333853 318.378868,328.615417 320.619929,330.501509 C322.86099,332.387601 325.859167,333.391489 329.61446,333.513172 C331.794952,333.513172 333.914875,333.117701 335.974229,332.326759 C338.033582,331.535817 339.971798,330.53193 341.788875,329.315096 C343.605951,328.098262 345.271605,326.759745 346.785836,325.299545 C348.300067,323.839344 349.662874,322.439986 350.874259,321.101469 C353.17589,318.546118 355.08382,316.203713 356.598051,314.074254 C358.112282,311.944795 359.202528,309.815336 359.86879,307.685877 C360.535051,305.556419 360.868182,303.335697 360.868182,301.023713 C360.868182,298.711729 360.565336,296.156378 359.959643,293.357661 C358.990536,294.939545 357.748867,296.825637 356.234636,299.015938 C354.720405,301.206238 353.054751,303.274855 351.237674,305.221789 C349.420597,307.168723 347.573236,308.811449 345.69559,310.149966 C343.817944,311.488483 342.031152,312.157741 340.335213,312.157741 C338.275859,312.157741 337.064475,310.788803 336.701059,308.050928 C336.337644,305.313052 336.701059,301.99718 337.791305,298.103312 C338.396998,295.547962 339.275252,292.931769 340.426067,290.254735 C341.576882,287.577701 342.909405,284.99193 344.423636,282.497421 C345.937867,280.002912 347.603521,277.660507 349.420597,275.470206 C351.237674,273.279906 353.17589,271.454655 355.235244,269.994455 C351.237674,267.439104 347.058398,266.252691 342.697413,266.435216 C338.336429,266.617741 334.520567,268.351729 331.249829,271.63718 C328.342506,267.743312 323.557537,265.85722 316.894921,265.978904 C312.533937,266.100587 307.597545,267.226158 302.085745,269.355617 C296.573945,271.485076 291.395276,274.466318 286.549738,278.299344 C281.704199,282.13237 277.585492,286.725918 274.193615,292.079986 C270.801738,297.434054 269.04523,303.335697 268.924092,309.784916 C268.681815,314.530567 269.226938,318.515697 270.559461,321.740306 C271.891984,324.964916 273.648492,327.550687 275.828984,329.497621 C278.009476,331.444555 280.432245,332.843914 283.097292,333.695697 C285.762338,334.547481 288.427384,334.973372 291.09243,334.973372 Z M302.117043,313.973372 C300.923577,313.850423 299.700275,313.204939 298.447137,312.03692 C297.193998,310.868902 296.686775,308.686551 296.925468,305.489868 C296.925468,302.539084 297.492364,299.711249 298.626156,297.006363 C299.759948,294.301478 301.192107,291.873228 302.922632,289.721615 C304.653157,287.570001 306.562701,285.879448 308.651266,284.649954 C310.73983,283.420461 312.798558,282.867189 314.827449,282.990138 C316.498301,282.990138 317.632093,283.481936 318.228825,284.46553 C318.825558,285.449125 319.004578,286.678619 318.765885,288.154011 C318.407845,291.104795 316.886177,293.80968 314.20088,296.268667 C311.515583,298.727654 308.502082,300.203046 305.160379,300.694844 C304.921686,302.907932 305.279726,304.813647 306.234498,306.411988 C307.189271,308.010329 308.502082,309.116873 310.172934,309.73162 C308.502082,311.57586 306.980414,312.743879 305.607929,313.235676 C304.235444,313.727474 303.071815,313.973372 302.117043,313.973372 Z M372.756974,313.156049 L372.73885,313.171531 L372.73885,313.171531 L372.673604,313.186102 L372.673604,313.186102 L372.649137,313.207048 L372.696186,312.992392 C373.176981,310.879575 374.06887,308.35363 375.371853,305.414557 L375.606059,304.891609 C377.116388,301.552441 378.868369,298.334697 380.862003,295.238377 C382.855637,292.142058 385.000304,289.50108 387.296004,287.315442 C389.591704,285.129805 391.826991,284.036986 394.001865,284.036986 C395.693433,284.158411 396.660044,284.947669 396.901696,286.40476 C397.143349,287.861852 396.962109,289.136807 396.357978,290.229625 C393.578973,295.208021 391.071827,300.459622 388.83654,305.984427 C386.601253,311.509233 385.423196,316.517985 385.30237,321.010683 C385.181544,324.896261 386.389807,327.99258 388.92716,330.299642 C391.464512,332.606703 394.48517,333.820946 397.989133,333.942371 C403.788796,334.185219 409.044741,333.001332 413.756967,330.39071 C418.469193,327.780088 422.516874,324.5927 425.900011,320.828547 C428.195711,318.278637 430.098725,315.941219 431.609054,313.816294 C433.119383,311.691369 434.20682,309.566444 434.871365,307.441519 C435.535909,305.316594 435.868182,303.1006 435.868182,300.793539 C435.868182,298.486477 435.626529,295.936567 435.143224,293.143808 C434.418266,294.6009 433.270416,296.422264 431.699674,298.607901 C430.128932,300.793539 428.37695,302.918464 426.443729,304.982677 C422.698114,309.111103 419.254564,311.357452 416.11308,311.721725 C414.78399,311.843149 413.756967,311.266384 413.032009,309.991429 C412.307051,308.716474 412.729943,306.682617 414.300685,303.889858 C414.78399,303.039888 415.539155,301.856001 416.566178,300.338198 C417.593202,298.820394 418.620226,297.181166 419.647249,295.420514 C420.674273,293.659862 421.610677,291.838497 422.456461,289.956421 C423.302245,288.074344 423.845964,286.344048 424.087616,284.765532 C424.329269,283.187016 424.268856,281.426364 423.906377,279.483575 C423.543898,277.540787 422.788734,275.719422 421.640884,274.019482 C420.493034,272.319542 418.892085,270.892807 416.838038,269.739276 C414.78399,268.585745 412.125811,268.00898 408.863501,268.00898 C403.426317,267.887556 398.683884,268.980374 394.636203,271.287436 C390.588521,273.594497 386.993939,276.50868 383.852454,280.029985 C384.33576,277.722923 384.456586,275.324793 384.214933,272.835595 C383.973281,270.346397 383.036877,268.373253 381.405722,266.916161 C379.774566,265.45907 377.26742,264.821592 373.884284,265.003729 C370.501147,265.185865 365.909747,266.794737 360.110084,269.830344 C362.284958,271.40886 363.463014,272.896308 363.644254,274.292687 C363.825493,275.689066 363.734873,277.05509 363.372395,278.390757 C362.405784,281.669213 361.106901,285.190517 359.475746,288.95467 C357.844591,292.718823 356.213436,296.422264 354.58228,300.064993 C352.951125,303.707722 351.501209,307.19867 350.232533,310.537838 C348.963857,313.877006 348.208692,316.882257 347.96704,319.553592 C347.604561,323.560594 348.238899,326.474777 349.870054,328.296141 C351.501209,330.117505 353.61567,331.301392 356.213436,331.847801 C358.811201,332.394211 361.620413,332.545991 364.641071,332.303143 C367.661729,332.060294 370.440734,331.878158 372.978086,331.756733 C371.648997,329.813945 371.014659,327.233678 371.075072,324.015935 C371.135485,320.798191 371.648997,317.24653 372.615607,313.360953 L372.615607,313.360953 L372.615607,313.725226 L372.756974,313.156049 Z M452.076562,334.973372 C456.071277,334.851793 459.854151,334.031129 463.425184,332.51138 C466.996218,330.991632 470.294884,329.01596 473.321183,326.584362 C474.410651,328.65122 475.9238,330.414128 477.860632,331.873086 C479.797463,333.332044 482.218503,334.122313 485.12375,334.243893 C490.934244,334.365473 496.230268,333.149675 501.011821,330.596498 C505.793374,328.043321 509.818352,324.882244 513.086755,321.113269 C515.386742,318.560092 517.293311,316.21968 518.80646,314.092032 C520.31961,311.964385 521.439341,309.836737 522.165653,307.70909 C522.891964,305.581442 523.25512,303.36261 523.25512,301.052593 C523.25512,298.742575 522.95249,296.189398 522.347231,293.393062 C521.741971,294.85202 520.62224,296.675718 518.988038,298.864155 C517.353837,301.052593 515.628846,303.18024 513.813067,305.247098 C512.360443,306.949216 510.695978,308.529754 508.819673,309.988712 C506.943367,311.44767 505.157851,312.116359 503.463123,311.99478 C502.131552,311.99478 501.042084,311.356485 500.19472,310.079897 C499.347356,308.803308 499.28683,306.888426 500.013142,304.335249 C500.981558,301.417332 502.252604,297.921911 503.826279,293.848986 C505.399955,289.776061 507.245997,285.399186 509.364407,280.718362 C511.482816,276.037537 513.782804,271.235133 516.264369,266.311149 C518.745934,261.387164 521.378815,256.736735 524.16301,252.35986 C525.37353,250.414582 526.523523,248.469305 527.612991,246.524027 C528.702459,244.578749 529.852453,242.724656 531.062972,240.961749 C532.273492,239.198841 533.66559,237.587908 535.239265,236.128949 C536.812941,234.669991 538.689246,233.393402 540.868182,232.299184 C537.115571,229.867587 533.423486,228.469418 529.791927,228.104679 C526.160368,227.739939 522.770912,228.135074 519.623561,229.290082 C516.47621,230.445091 513.570963,232.268789 510.907819,234.761176 C508.244676,237.253563 505.944689,240.141085 504.007857,243.423741 C501.828922,247.071136 499.468408,251.083272 496.926317,255.460146 C494.384226,259.837021 491.90266,264.335476 489.481621,268.95551 C486.576374,266.888653 482.702711,265.916014 477.860632,266.037594 C473.502761,266.159174 468.569893,267.283787 463.062029,269.411435 C457.554164,271.539082 452.379192,274.517789 447.537113,278.347554 C442.695035,282.17732 438.579268,286.766959 435.189813,292.116473 C431.800357,297.465987 430.045104,303.36261 429.924052,309.806342 C429.681948,314.547957 430.226682,318.529697 431.558254,321.751563 C432.889825,324.973429 434.645079,327.557001 436.824014,329.502279 C439.00295,331.447557 441.423989,332.845725 444.087132,333.696784 C446.750276,334.547843 449.413419,334.973372 452.076562,334.973372 Z M463.239048,313.973372 C461.930136,313.850423 460.68072,313.204939 459.4908,312.03692 C458.30088,310.868902 457.765416,308.686551 457.884408,305.489868 C457.884408,302.539084 458.44962,299.711249 459.580044,297.006363 C460.710468,294.301478 462.138372,291.873228 463.863756,289.721615 C465.589141,287.570001 467.493013,285.879448 469.575373,284.649954 C471.657733,283.420461 473.710345,282.867189 475.733209,282.990138 C477.399098,282.990138 478.529522,283.451198 479.124482,284.373318 C479.719442,285.295438 479.957426,286.43272 479.838434,287.785163 L479.838434,287.785163 L477.161114,294.240003 C475.852201,295.961294 474.245809,297.405949 472.341937,298.573967 C470.438065,299.741986 468.415201,300.448945 466.273345,300.694844 C466.035361,302.907932 466.392337,304.813647 467.344273,306.411988 C468.296209,308.010329 469.605121,309.116873 471.271009,309.73162 C469.605121,311.57586 468.087973,312.743879 466.719565,313.235676 C465.351157,313.727474 464.190985,313.973372 463.239048,313.973372 Z M514.396829,387.973372 C521.071622,387.973372 527.200296,386.521114 532.782851,383.616596 C538.365405,380.712079 543.40184,376.930155 547.892156,372.270825 C552.382471,367.611495 556.265988,362.347057 559.542704,356.477511 C562.819421,350.607966 565.550018,344.708165 567.734496,338.778108 C571.982092,336.357677 576.077988,333.755713 580.022184,330.972217 C583.96638,328.188722 587.273437,325.405226 589.943355,322.62173 C592.977352,319.233126 595.434889,316.086566 597.315967,313.182048 C599.197045,310.277531 600.592684,307.52429 601.502883,304.922327 C602.413082,302.320363 602.868182,299.748655 602.868182,297.207202 C602.868182,294.665749 602.564782,292.003275 601.957983,289.219779 C598.681266,294.786771 594.34265,300.414273 588.942135,306.102287 C583.541621,311.7903 577.625327,316.933716 571.193253,321.532536 C573.377731,318.143932 575.592549,314.422519 577.837706,310.368297 C580.082864,306.314074 582.115642,302.138831 583.93604,297.842565 C585.756439,293.5463 587.152077,289.310545 588.122956,285.135301 C589.093835,280.960058 589.397235,276.996601 589.033155,273.244933 C588.790436,271.550631 588.153296,269.977351 587.121737,268.525092 C586.090178,267.072833 584.54284,266.074406 582.479722,265.529809 C580.416604,264.985212 577.807366,264.985212 574.65201,265.529809 C571.496653,266.074406 567.734496,267.496409 563.365541,269.795819 C565.064579,270.885013 566.247838,271.943951 566.915317,272.972635 C567.582796,274.001318 567.916536,275.060256 567.916536,276.149451 C567.916536,277.238645 567.704156,278.327839 567.279397,279.417033 C566.854637,280.506227 566.399538,281.655932 565.914098,282.866147 C565.307299,284.439427 564.700499,286.073218 564.0937,287.76752 C563.4869,289.461822 562.880101,291.277146 562.273302,293.213491 L562.273302,293.213491 L562.273302,293.031958 C561.545142,294.484217 560.392224,296.29954 558.814545,298.477928 C557.236867,300.656317 555.477148,302.774194 553.53539,304.83156 C549.773234,308.946293 546.314477,311.185192 543.15912,311.548257 C541.945522,311.669279 540.944303,311.275958 540.155463,310.368297 C539.366624,309.460635 539.457644,307.978121 540.428523,305.920754 C541.156682,304.468496 542.218581,302.622917 543.61422,300.384018 C545.009859,298.145119 546.405497,295.694433 547.801136,293.031958 C549.196775,290.369484 550.410373,287.616243 551.441932,284.772237 C552.473491,281.92823 552.989271,279.296011 552.989271,276.87558 C553.110631,274.697192 552.685871,272.579314 551.714992,270.521948 C550.744113,268.464581 549.136095,266.951812 546.890937,265.983639 C544.645779,265.015467 541.733142,264.743168 538.153025,265.166744 C534.572909,265.590319 530.234293,267.133344 525.137178,269.795819 C527.321656,271.369099 528.535255,272.851613 528.777975,274.243361 C529.020694,275.635109 528.960014,276.996601 528.595935,278.327839 C527.503696,281.837464 526.047377,285.226068 524.226979,288.49365 C522.406581,291.761232 520.586183,294.998559 518.765784,298.20563 C516.945386,301.412701 515.337368,304.650028 513.941729,307.91761 C512.546091,311.185192 511.666231,314.513285 511.302152,317.901889 C511.059432,319.838234 511.211132,321.744323 511.757251,323.620158 C512.303371,325.495992 513.18323,327.160038 514.396829,328.612297 C515.610428,330.064556 517.097086,331.274771 518.856804,332.242944 C520.616523,333.211116 522.649301,333.695203 524.955138,333.695203 C530.780413,333.816224 536.059567,332.606009 540.792603,330.064556 C545.525638,327.523103 549.591194,324.376542 552.989271,320.624874 L552.989271,320.624874 L554.08151,319.53568 C553.110631,322.077133 552.170092,324.558075 551.259893,326.978506 C550.349693,329.398937 549.409154,331.758858 548.438275,334.058267 C547.467396,334.421332 546.557197,334.754141 545.707678,335.056695 C544.858159,335.359249 544.00864,335.631548 543.15912,335.873591 C538.790165,337.083806 533.69305,338.445299 527.867775,339.958068 C522.042501,341.470838 516.459947,343.437438 511.120112,345.857869 C505.780277,348.278301 501.168602,351.273584 497.285086,354.84372 C493.401569,358.413856 491.277771,362.740377 490.913692,367.823283 C490.549612,373.511296 492.37001,378.291648 496.374886,382.164338 C500.379762,386.037028 506.387077,387.973372 514.396829,387.973372 Z M521.98225,365.973372 C520.522174,365.973372 519.457535,365.668494 518.788334,365.058738 C518.119132,364.448982 517.81495,363.717275 517.875786,362.863616 C517.936623,362.009958 518.362478,361.156299 519.153353,360.302641 C519.944227,359.448982 521.130539,358.717275 522.712288,358.107519 C524.294037,357.619714 526.757916,356.644104 530.103923,355.18069 C533.449931,353.717275 536.704684,352.314836 539.868182,350.973372 C536.94803,355.607519 533.967041,359.266055 530.925216,361.948982 C527.883391,364.631909 524.902402,365.973372 521.98225,365.973372 Z" id="path-3"></path>
        <filter x="-14.1%" y="-35.6%" width="128.2%" height="173.2%" filterUnits="objectBoundingBox" id="filter-4">
            <feOffset dx="0" dy="2" in="SourceAlpha" result="shadowOffsetOuter1"></feOffset>
            <feGaussianBlur stdDeviation="23" in="shadowOffsetOuter1" result="shadowBlurOuter1"></feGaussianBlur>
            <feColorMatrix values="0 0 0 0 1   0 0 0 0 0   0 0 0 0 0.133333333  0 0 0 1 0" type="matrix" in="shadowBlurOuter1"></feColorMatrix>
        </filter>
        <path d="M179.019735,512.739173 C188.960309,513.467794 198.567511,512.496299 207.841339,509.82469 C217.115168,507.15308 225.267651,503.35818 232.298789,498.439989 C239.329927,493.521799 244.906346,487.632114 249.028048,480.770934 C253.149749,473.909755 255.02876,466.653906 254.665081,459.003387 C254.301401,451.960052 252.846683,445.58462 250.300926,439.87709 C247.755169,434.169561 245.253563,428.317143 242.707806,423.520389 C240.162049,418.723635 241.415594,421.567868 236.628981,410.735059 C233.437907,403.513186 235.980119,396.174465 244.25562,388.718894 C247.232047,391.747625 249.876145,394.079969 252.187914,395.715927 C255.655566,398.169863 261.764867,400.718242 266.492702,400.961116 C272.987643,401.438621 276.861919,400.142174 276.861919,400.142174 C276.861919,400.142174 284.691995,397.993311 287.009165,395.715927 C289.326334,393.438542 291.911928,390.48267 292.578674,387.143158 C293.24542,383.803646 292.760514,380.676648 291.123956,377.762165 C289.487398,374.847682 286.577961,372.388587 282.395646,370.384879 C278.213332,368.381172 272.667219,367.257882 265.757307,367.015008 C260.059661,366.772134 253.604349,367.591833 246.391371,369.474103 C239.178393,371.356374 232.541242,374.119061 226.479916,377.762165 C223.114526,379.980054 220.982992,381.712984 219.074074,383.427788 C217.458747,384.878856 215.956514,386.302498 214.478491,388.145012 C210.720469,392.273863 208.356552,396.372355 207.38674,400.440488 C206.416928,404.508621 206.204781,408.546395 206.7503,412.55381 C207.29582,416.561224 208.356552,420.568639 209.932496,424.576053 C211.508441,428.583468 212.963159,432.590882 214.296651,436.598297 C215.630143,440.605711 216.539342,444.643485 217.024248,448.711618 C217.509154,452.779751 216.963634,456.878243 215.38769,461.007094 C214.054198,464.528762 212.053961,467.382527 209.386977,469.568389 C206.719994,471.754252 203.780251,473.393648 200.567748,474.48658 C197.355245,475.579511 194.173049,476.095617 191.02116,476.034899 C187.869271,475.97418 185.111367,475.427715 182.74745,474.395502 C180.383533,473.363289 178.716669,471.845329 177.746857,469.841622 C176.777044,467.837915 176.898271,465.378819 178.110536,462.464336 C179.322801,459.792726 181.141199,457.36399 183.565729,455.178128 C185.99026,452.992265 189.081536,451.899334 192.839558,451.899334 C194.294276,451.899334 195.961141,452.263644 197.840152,452.992265 C199.719163,453.720886 200.840508,455.724593 201.204187,459.003387 C202.658906,456.088904 203.355958,453.235139 203.295345,450.442092 C203.234731,447.649046 202.386146,445.159591 200.749588,442.973729 C199.11303,440.787866 196.658193,439.057392 193.385077,437.782306 C190.111961,436.507219 186.050873,435.869676 181.201812,435.869676 C177.201337,435.869676 173.231169,436.659015 169.291307,438.237694 C165.351445,439.816372 161.654037,441.78972 158.199081,444.157738 C154.744125,446.525755 151.683156,449.197365 149.016172,452.172567 C146.349189,455.147769 144.288338,457.971174 142.83362,460.642784 C138.954371,468.414739 137.34812,475.397356 138.014866,481.590633 C138.681612,487.78391 140.893996,493.127129 144.652018,497.620291 C148.41004,502.113453 153.35002,505.63512 159.471959,508.185293 C165.593898,510.735466 172.109824,512.253426 179.019735,512.739173 Z M267.880925,393.973372 C263.217009,393.973372 259.044031,393.482606 255.361992,392.501072 C251.679954,391.519538 248.182017,390.231275 244.868182,388.636283 C248.059282,385.937066 251.679954,383.789961 255.730196,382.194969 C259.780439,380.599977 264.137518,379.863826 268.801434,379.986518 C274.324492,379.986518 278.006531,380.722668 279.847551,382.194969 C281.68857,383.667269 282.27156,385.292934 281.596519,387.071964 C280.921479,388.850994 279.295245,390.445986 276.717818,391.856941 C274.140391,393.267895 271.194759,393.973372 267.880925,393.973372 Z M276.269757,489.965105 C282.065032,490.086366 287.347184,488.873757 292.116213,486.327278 C296.885242,483.780799 300.899678,480.628015 304.15952,476.868927 C306.453484,474.322448 308.355058,471.988175 309.864245,469.86611 C311.373431,467.744044 312.490229,465.621978 313.214639,463.499912 C313.939048,461.377846 314.301253,459.164835 314.301253,456.860878 C314.301253,454.55692 313.999415,452.010441 313.395741,449.22144 C312.792066,450.676571 311.675268,452.495485 310.045347,454.678181 C308.415426,456.860878 306.694953,458.982943 304.88393,461.044379 C303.435111,462.742031 301.775006,464.318423 299.903615,465.773554 C298.032224,467.228685 296.251384,467.89562 294.561095,467.774359 C293.233011,467.774359 292.146397,467.137739 291.301253,465.8645 C290.456108,464.59126 290.395741,462.681401 291.12015,460.134922 C292.08603,457.22466 293.353746,453.738409 294.9233,449.676169 C296.492854,445.613929 298.334061,441.248536 300.446922,436.579991 C302.559783,431.911446 304.853746,427.12164 307.328812,422.210574 C309.803877,417.299507 312.429862,412.661277 315.206764,408.295885 C316.414114,406.35571 317.561095,404.415536 318.647709,402.475361 C319.734324,400.535187 320.881305,398.685958 322.088654,396.927675 C323.296003,395.169392 324.684455,393.562685 326.254009,392.107554 C327.823562,390.652423 329.694953,389.379184 331.868182,388.287835 C328.1254,385.862617 324.442985,384.468117 320.820938,384.104334 C317.19889,383.740552 313.818313,384.134649 310.679205,385.286628 C307.540098,386.438607 304.64246,388.25752 301.986292,390.743369 C299.330124,393.229217 297.036161,396.109164 295.104402,399.383208 C291.965295,404.597427 288.52435,410.508896 284.781568,417.117616 C281.038785,423.726335 277.537473,430.426 274.277631,437.216611 C271.017788,444.007222 268.301253,450.615941 266.128024,457.042769 C263.954796,463.469597 262.868182,469.168859 262.868182,474.140557 C262.868182,476.080731 263.139835,477.99059 263.683142,479.870134 C264.22645,481.749678 265.04141,483.417016 266.128024,484.872147 C267.214639,486.327278 268.60309,487.539887 270.293379,488.509974 C271.983667,489.480061 273.975793,489.965105 276.269757,489.965105 Z M337.304187,416.973372 C338.035552,414.437166 339.193545,412.655784 340.778168,411.629224 C342.36279,410.602665 344.069307,409.787455 345.897718,409.183597 C347.726128,408.579738 349.524066,407.885301 351.291529,407.100285 C353.058993,406.315269 354.491248,404.835815 355.588294,402.661924 C356.075871,401.816522 356.441553,400.699384 356.685341,399.310509 C356.929129,397.921634 356.929129,396.562953 356.685341,395.234464 C356.441553,393.905975 355.923503,392.637872 355.131192,391.430155 C354.33888,390.222438 353.089466,389.31665 351.38295,388.712791 C347.969916,387.505074 344.495936,387.77681 340.961009,389.528 C337.426081,391.27919 334.622518,394.207904 332.55032,398.314142 C331.575167,400.125718 331.026644,402.027873 330.90475,404.020606 C330.782856,406.013339 330.965697,407.885301 331.453273,409.636491 C331.940849,411.387681 332.672214,412.92752 333.647366,414.256009 C334.622518,415.584498 335.841459,416.490286 337.304187,416.973372 Z M316.683317,489.965089 C322.529803,490.086585 327.828182,488.871617 332.578452,486.320183 C337.328722,483.76875 341.409083,480.609832 344.819533,476.84343 C347.133767,474.291996 349.052146,471.953182 350.574668,469.826987 C352.097191,467.700793 353.193407,465.574598 353.863317,463.448403 C354.533227,461.322209 354.868182,459.104891 354.868182,456.796451 C354.868182,454.488012 354.624578,451.936578 354.137371,449.142151 C353.40656,450.600113 352.249443,452.422565 350.66602,454.609508 C349.082596,456.796451 347.31647,458.922646 345.367641,460.988092 C341.591785,465.118985 338.120434,467.366676 334.953587,467.731167 C333.735569,467.852664 332.730704,467.457799 331.938993,466.546573 C331.147281,465.635347 331.238632,464.14701 332.213047,462.081564 C332.943857,460.623602 334.009623,458.770775 335.410344,456.523084 C336.811065,454.275392 338.211785,451.815081 339.612506,449.142151 C341.013227,446.46922 342.231245,443.705167 343.26656,440.849991 C344.301876,437.994816 344.819533,435.352259 344.819533,432.922323 C344.941335,430.735379 344.515029,428.609185 343.540614,426.543738 C342.5662,424.478292 340.952326,422.959582 338.698993,421.987607 C336.445659,421.015632 333.522416,420.742264 329.929263,421.167503 C326.33611,421.592742 321.981695,423.141827 316.86602,425.814757 C319.058452,427.394216 320.27647,428.882553 320.520074,430.279766 C320.763677,431.67698 320.702776,433.043819 320.337371,434.380285 C319.241155,437.903693 317.779533,441.305604 315.952506,444.586019 C314.125479,447.866434 312.298452,451.116474 310.471425,454.33614 C308.644398,457.555807 307.030524,460.805847 305.629803,464.086262 C304.229083,467.366676 303.34602,470.70784 302.980614,474.109751 C302.737011,476.0537 302.889263,477.967276 303.437371,479.850477 C303.985479,481.733678 304.868542,483.404259 306.08656,484.862221 C307.304578,486.320183 308.79665,487.535152 310.562776,488.507127 C312.328903,489.479101 314.369083,489.965089 316.683317,489.965089 Z M371.076562,490.973372 C375.071277,490.851793 378.854151,490.031129 382.425184,488.51138 C385.996218,486.991632 389.294884,485.01596 392.321183,482.584362 C393.410651,484.65122 394.9238,486.414128 396.860632,487.873086 C398.797463,489.332044 401.218503,490.122313 404.12375,490.243893 C409.934244,490.365473 415.230268,489.149675 420.011821,486.596498 C424.793374,484.043321 428.818352,480.882244 432.086755,477.113269 C434.386742,474.560092 436.293311,472.21968 437.80646,470.092032 C439.31961,467.964385 440.439341,465.836737 441.165653,463.70909 C441.891964,461.581442 442.25512,459.36261 442.25512,457.052593 C442.25512,454.742575 441.95249,452.189398 441.347231,449.393062 C440.741971,450.85202 439.62224,452.675718 437.988038,454.864155 C436.353837,457.052593 434.628846,459.18024 432.813067,461.247098 C431.360443,462.949216 429.695978,464.529754 427.819673,465.988712 C425.943367,467.44767 424.157851,468.116359 422.463123,467.99478 C421.131552,467.99478 420.042084,467.356485 419.19472,466.079897 C418.347356,464.803308 418.28683,462.888426 419.013142,460.335249 C419.981558,457.417332 421.252604,453.921911 422.826279,449.848986 C424.399955,445.776061 426.245997,441.399186 428.364407,436.718362 C430.482816,432.037537 432.782804,427.235133 435.264369,422.311149 C437.745934,417.387164 440.378815,412.736735 443.16301,408.35986 C444.37353,406.414582 445.523523,404.469305 446.612991,402.524027 C447.702459,400.578749 448.852453,398.724656 450.062972,396.961749 C451.273492,395.198841 452.66559,393.587908 454.239265,392.128949 C455.812941,390.669991 457.689246,389.393402 459.868182,388.299184 C456.115571,385.867587 452.423486,384.469418 448.791927,384.104679 C445.160368,383.739939 441.770912,384.135074 438.623561,385.290082 C435.47621,386.445091 432.570963,388.268789 429.907819,390.761176 C427.244676,393.253563 424.944689,396.141085 423.007857,399.423741 C420.828922,403.071136 418.468408,407.083272 415.926317,411.460146 C413.384226,415.837021 410.90266,420.335476 408.481621,424.95551 C405.576374,422.888653 401.702711,421.916014 396.860632,422.037594 C392.502761,422.159174 387.569893,423.283787 382.062029,425.411435 C376.554164,427.539082 371.379192,430.517789 366.537113,434.347554 C361.695035,438.17732 357.579268,442.766959 354.189813,448.116473 C350.800357,453.465987 349.045104,459.36261 348.924052,465.806342 C348.681948,470.547957 349.226682,474.529697 350.558254,477.751563 C351.889825,480.973429 353.645079,483.557001 355.824014,485.502279 C358.00295,487.447557 360.423989,488.845725 363.087132,489.696784 C365.750276,490.547843 368.413419,490.973372 371.076562,490.973372 Z M382.239048,469.973372 C380.930136,469.850423 379.68072,469.204939 378.4908,468.03692 C377.30088,466.868902 376.765416,464.686551 376.884408,461.489868 C376.884408,458.539084 377.44962,455.711249 378.580044,453.006363 C379.710468,450.301478 381.138372,447.873228 382.863756,445.721615 C384.589141,443.570001 386.493013,441.879448 388.575373,440.649954 C390.657733,439.420461 392.710345,438.867189 394.733209,438.990138 C396.399098,438.990138 397.529522,439.451198 398.124482,440.373318 C398.719442,441.295438 398.957426,442.43272 398.838434,443.785163 L398.838434,443.785163 L396.161114,450.240003 C394.852201,451.961294 393.245809,453.405949 391.341937,454.573967 C389.438065,455.741986 387.415201,456.448945 385.273345,456.694844 C385.035361,458.907932 385.392337,460.813647 386.344273,462.411988 C387.296209,464.010329 388.605121,465.116873 390.271009,465.73162 C388.605121,467.57586 387.087973,468.743879 385.719565,469.235676 C384.351157,469.727474 383.190985,469.973372 382.239048,469.973372 Z M464.576646,491.920691 C473.745925,492.28361 481.876019,490.771447 488.966928,487.384202 C496.057837,483.996957 502.476332,478.492684 508.222414,470.871383 C510.667555,467.726084 512.134639,464.520299 512.623668,461.254027 C513.112696,457.987755 512.868182,454.177105 511.890125,449.822076 C507.488871,457.201431 502.629154,463.219839 497.310972,467.877301 C491.99279,472.534762 485.482602,474.984466 477.780408,475.226412 C473.134639,475.347385 469.589185,474.046925 467.144044,471.325032 C464.698903,468.603139 463.476332,465.306624 463.476332,461.435487 C463.231818,458.290188 463.904232,455.326349 465.493574,452.543969 C465.126803,454.358565 465.187931,456.142917 465.676959,457.897026 C466.165987,459.651135 466.960658,461.223784 468.060972,462.614974 C469.161285,464.006164 470.62837,465.125164 472.462226,465.971976 C474.296082,466.818787 476.43558,467.242192 478.880721,467.242192 C481.937147,467.242192 484.993574,466.395381 488.05,464.701759 C491.106426,463.008136 493.826646,460.800378 496.210658,458.078485 C498.594671,455.356592 500.520219,452.36251 501.987304,449.096238 C503.454389,445.829966 504.187931,442.624181 504.187931,439.478882 C504.187931,436.938448 503.790596,434.549231 502.995925,432.31123 C502.201254,430.073229 500.978683,428.13766 499.328213,426.504524 C497.677743,424.871388 495.599373,423.661658 493.093103,422.875333 C490.586834,422.089008 487.6221,421.816819 484.198903,422.058765 C476.86348,422.66363 470.169906,424.387496 464.118182,427.230362 C458.066458,430.073229 452.870533,433.551203 448.530408,437.664286 C444.190282,441.777369 440.828213,446.253371 438.444201,451.092293 C436.060188,455.931214 434.868182,460.649162 434.868182,465.246137 C434.868182,473.230357 437.588401,479.611685 443.02884,484.390119 C448.469279,489.168554 455.651881,491.678745 464.576646,491.920691 Z M479.238968,450.96012 C476.602264,451.079391 474.774549,450.393582 473.755822,448.902693 C472.737096,447.411804 472.107882,446.010369 471.868182,444.698386 C473.785785,442.909319 475.793275,441.507884 477.890654,440.494079 C479.988032,439.480275 481.995523,438.973372 483.913126,438.973372 C485.351328,438.973372 486.370054,439.331186 486.969305,440.046813 C487.568556,440.762439 487.868182,441.656973 487.868182,442.730413 C487.868182,444.400208 487.089156,446.189275 485.531103,448.097613 C483.973051,450.005951 481.875672,450.96012 479.238968,450.96012 Z M541.564182,488.94917 C543.748182,489.070181 545.871515,488.737403 547.934182,487.950837 C549.996848,487.16427 551.938182,486.135684 553.758182,484.865077 C555.578182,483.59447 557.246515,482.233106 558.763182,480.780984 C560.279848,479.328862 561.644848,477.937245 562.858182,476.606133 C565.163515,474.064919 567.074515,471.735474 568.591182,469.617795 C570.107848,467.500117 571.199848,465.382439 571.867182,463.264761 C572.534515,461.147083 572.868182,458.938648 572.868182,456.639455 C572.868182,454.340261 572.625515,451.799048 572.140182,449.015814 C571.169515,450.588946 570.047182,452.404099 568.773182,454.461271 C567.499182,456.518444 566.103848,458.48486 564.587182,460.360517 C563.070515,462.236175 561.493182,463.809307 559.855182,465.079914 C558.217182,466.350521 556.488182,466.985824 554.668182,466.985824 C552.241515,466.985824 550.846182,465.291682 550.482182,461.903397 C550.360848,459.120163 550.724848,456.427687 551.574182,453.825968 C552.423515,451.224249 553.576182,448.713288 555.032182,446.293085 C556.488182,443.872881 558.126182,441.573688 559.946182,439.395505 C561.766182,437.217322 563.525515,435.220654 565.224182,433.405502 L565.224182,433.405502 L555.032182,423.422162 C552.241515,424.390244 549.208182,425.207062 545.932182,425.872618 C542.656182,426.538174 539.562182,426.8407 536.650182,426.780195 C533.738182,426.71969 531.220515,426.175144 529.097182,425.146557 C526.973848,424.117971 525.730182,422.393576 525.366182,419.973372 C522.090182,420.336403 519.451182,421.425495 517.449182,423.240647 C515.447182,425.0558 514.051848,427.08272 513.263182,429.321408 C512.474515,431.560096 512.322848,433.889542 512.808182,436.309746 C513.293515,438.729949 514.385515,440.726617 516.084182,442.299749 L516.084182,442.299749 L512.080182,449.197329 C510.017515,452.827634 507.712182,456.215919 505.164182,459.362183 C502.616182,462.508448 500.007515,465.352187 497.338182,467.893401 C494.668848,470.434614 491.999515,472.552292 489.330182,474.246435 C486.660848,475.940577 484.173515,477.150679 481.868182,477.87674 C482.596182,479.812902 483.900515,481.113762 485.781182,481.779318 C487.661848,482.444874 489.026848,482.777652 489.876182,482.777652 C492.666848,482.777652 495.366515,482.081843 497.975182,480.690226 C500.583848,479.298609 502.494848,477.75573 503.708182,476.061587 C507.348182,472.552292 510.593848,468.437946 513.445182,463.71855 C516.296515,458.999153 518.753515,454.521777 520.816182,450.286421 L520.816182,450.286421 L523.182182,445.567024 L526.549182,445.567024 C527.095182,445.567024 527.732182,445.506519 528.460182,445.385509 C525.790848,451.557027 524.334848,457.970566 524.092182,464.626126 C523.728182,471.523706 524.941515,477.241436 527.732182,481.779318 C530.522848,486.317199 535.133515,488.70715 541.564182,488.94917 Z" id="path-5"></path>
        <filter x="-16.1%" y="-46.3%" width="132.2%" height="195.9%" filterUnits="objectBoundingBox" id="filter-6">
            <feOffset dx="0" dy="2" in="SourceAlpha" result="shadowOffsetOuter1"></feOffset>
            <feGaussianBlur stdDeviation="23" in="shadowOffsetOuter1" result="shadowBlurOuter1"></feGaussianBlur>
            <feColorMatrix values="0 0 0 0 1   0 0 0 0 0   0 0 0 0 0.133333333  0 0 0 1 0" type="matrix" in="shadowBlurOuter1"></feColorMatrix>
        </filter>
    </defs>
    <g id="Page-1" stroke="none" stroke-width="1" fill="none" fill-rule="evenodd">
        <g id="Apple-TV" transform="translate(-755.000000, -923.000000)">
            <g id="Group-10" transform="translate(755.000000, 923.000000)">
                <g id="Group-9" fill="#F0F0F0">
                    <rect id="Rectangle" x="0" y="0" width="908" height="908"></rect>
                </g>
                <g id="Group-Copy-6" transform="translate(98.000000, 105.000000)">
                    <g id="Group-Copy-3">
                        <mask id="mask-2" fill="white">
                            <use xlink:href="#path-1"></use>
                        </mask>
                        <use id="Oval-Copy" fill="#FF0021" xlink:href="#path-1"></use>
                        <polyline id="SPIRALshape" stroke="#CE001B" stroke-width="65" mask="url(#mask-2)" points="286.818421 358.14947 341.491177 339.444291 376.126177 356.826448 377.177404 358.14947 378.142935 359.594725 379.012342 361.156547 379.775577 362.828486 380.423025 364.60333 380.945557 366.473137 381.334586 368.429265 381.582109 370.462409 381.680762 372.562642 381.623861 374.719455 381.405441 376.921806 381.020301 379.158165 380.464035 381.416568 379.733064 383.684669 378.824667 385.949797 377.737004 388.199013 376.469139 390.41917 375.021054 392.596973 373.393665 394.719044 371.58883 396.771982 369.609353 398.74243 367.458985 400.617137 365.14242 402.383022 362.665289 404.027244 360.034144 405.537258 357.256444 406.900886 354.340534 408.106372 351.29562 409.14245 348.131739 409.998401 344.859725 410.664109 341.491177 411.13012 338.038412 411.387694 334.514425 411.428856 330.932838 411.246446 327.307853 410.834162 323.654193 410.186604 319.98705 409.299312 316.322021 408.168802 312.675047 406.792595 309.06235 405.169247 305.500364 403.298371 302.005669 401.180656 298.594922 398.817884 295.284783 396.212935 292.091845 393.3698 289.032563 390.293574 286.12318 386.990459 283.379656 383.467755 280.817592 379.733841 278.452162 375.798166 276.298042 371.671221 274.369338 367.364514 272.679519 362.890538 271.24135 358.262737 270.066831 353.495462 269.16713 348.603932 268.552527 343.604179 268.232355 338.513 268.214949 333.347901 268.507595 328.127034 269.116484 322.869135 270.046667 317.593459 271.302021 312.319709 272.885211 307.067964 274.79766 301.858606 277.039527 296.712241 279.609685 291.649622 282.505701 286.69157 285.723833 281.85889 289.259018 277.172291 293.104876 272.652301 297.25371 268.319185 301.69652 264.192861 306.423017 260.292817 311.42164 256.63803 316.679588 253.246882 322.182846 250.13708 327.916222 247.325582 333.863388 244.828513 340.006926 242.661098 346.328378 240.837583 352.808303 239.371172 359.426335 238.27396 366.161246 237.556866 372.991017 237.229582 379.892907 237.300512 386.843531 237.776725 393.818939 238.663906 400.794694 239.96632 407.745964 241.686771 414.647602 243.826571 421.474242 246.385517 428.200385 249.361869 434.800498 252.752333 441.249105 256.552054 447.520881 260.754613 453.590754 265.352026 459.433993 270.334755 465.026311 275.691721 470.343959 281.410324 475.363817 287.476469 480.063492 293.874597 484.421407 300.587723 488.416893 307.597478 492.030275 314.884162 495.242957 322.426791 498.037507 330.203165 500.397729 338.189927 502.308745 346.362635 503.757064 354.695835 504.730645 363.163144 505.218963 371.737329 505.213068 380.390397 504.705631 389.093689 503.690997 397.817966 502.165222 406.533519 500.126112 415.21026 497.573251 423.817829 494.508023 432.3257 490.933634 440.703289 486.855116 448.920058 482.279337 456.945631 477.214997 464.7499 471.672619 472.303134 465.664532 479.576096 459.204851 486.540146 452.309449 493.167352 444.995917 499.4306 437.283528 505.303696 429.193182 510.761471 420.747357 515.779881 411.970046 520.336108 402.886688 524.40865 393.524096 527.977415 383.910382 531.023809 374.074868 533.530813 364.047997 535.483066 353.861243 536.866938 343.547009 537.670591 333.138525 537.884046 322.669741 537.499239 312.175213 536.510067 301.689997 534.912431 291.249523 532.704276 280.889482 529.885618 270.645702 526.458566 260.554023 522.427337 250.650178 517.798269 240.969661 512.579812 231.547607 506.782533 222.418663 500.419091 213.616863 493.504222 205.175506 486.05471 197.127029 478.089345 189.502889 469.628883 182.333446 460.695997 175.647839 451.315211 169.473884 441.512842 163.837955 431.316923 158.764881 420.757128 154.27785 409.864681 150.398305 398.67227 147.145857 387.213943 144.538201 375.525013 142.59103 363.641941 141.317967 351.602227 140.730496 339.444291 140.837899 327.207351 141.647209 314.931294 143.163156 302.656547 145.388135 290.423947 148.322171 278.274602 151.962898 266.249752 156.305545 254.390634 161.342927 242.738338 167.065447 231.333668 173.461109 220.216995 180.515532 209.428121 188.211978 199.006138 196.531389 188.989282 205.452426 179.414802 214.951526 170.318823 225.002956 161.736209 235.578884 153.700436 246.649452 146.243466 258.182861 139.395624 270.14546 133.185481 282.501842 127.639738 295.214951 122.783123 308.24619 118.63829 321.555541 115.225718 335.101682 112.563629 348.842121 110.667902 362.733329 109.552 376.730872 109.226906 390.78956 109.701058 404.863588 110.980306 418.906689 113.067862 432.872283 115.964273 446.713632 119.667393 460.383998 124.172365 473.836797 129.47162 487.025762 135.554874 499.905095 142.409143 512.42963 150.018762 524.554989 158.365414 536.237736 167.428173 547.435533 177.183551 558.107291 187.605552 568.213316 198.665744 577.715456 210.333331 586.577243 222.575237 594.764024 235.356201 602.243096 248.638874 608.983833 262.383926 614.957799 276.550168 620.138867 291.094669 624.503324 305.972888 628.029966 321.138809 630.700192 336.545087 632.498088 352.143188 633.410498 367.883551 633.427093 383.715738 632.540424 399.5886 630.745974 415.450441 628.042193 431.249187 624.430526 446.932553 619.915434 462.448223 614.504399 477.744016 608.207925 492.768068 601.039525 507.469004 593.015698 521.796113 584.155901 535.699521 574.482499 549.130367 564.020721 562.04097 552.79859 574.384999 540.846858 586.117634 528.198918 597.195729 514.890716 607.577968 500.960648 617.225016 486.449453 626.099663 471.400096 634.166962 455.857635 641.394367 439.869094 647.751855 423.48332 653.212041 406.750827 657.750297 389.723652 661.344843 372.455184 663.97685 355 665.630515 337.413693 666.293142 319.752694 665.9552 302.074092 664.610383 284.435448 662.255651 266.894609 658.891261 249.509517 654.520796 232.33802 649.151167 215.437678 642.792624 198.86557 635.458736 182.678103 627.166376 166.930821 617.935684 151.678214 607.790024 136.973533 596.755931 122.868601 584.863041 109.413636 572.14402 96.6570727 558.63447 84.6453905 544.372836 73.4229459 529.400297 63.0318124 513.760648 53.5116261 497.500175 44.8994385 480.667515 37.2295767 463.313515 30.533512 445.491077 24.8397371 427.254997 20.1736525 408.661799 16.5574621 389.769556 14.0100787 370.637713 12.5470408 351.326898 12.1804383 331.898728 12.918851 312.415616 14.7672969 292.940569 17.7271929 273.536983 21.7963267 254.268439 26.9688408 235.198492 33.2352282 216.390465 40.5823406 197.907235 48.9934081 179.811028 58.4480716 162.163205 68.9224267 145.024059 80.3890803 128.452605 92.8172184 112.506385 106.172686 97.2412619 120.418079 82.7112293 135.512845 68.9682218 151.413401 56.0619313 168.073251 44.0396295 185.443129 32.9459977 203.471138 22.822964 222.102904 13.7095484 241.281746 5.64171734 260.948839 -1.34775388 281.0434 -7.22940766 301.502874 -11.9772212 322.26313 -15.5687128 343.258658 -17.9850369 364.422781 -19.2110683 385.687861 -19.2354735 406.985521 -18.0507713 428.246861 -15.6533801 449.402681 -12.0436526 470.383709 -7.22589873 491.120825 -1.20839436 511.545288 5.99662204 531.588966 14.3729662 551.184562 23.9005381 570.265838 34.5553645 588.767842 46.3096552 606.627122 59.1318717 623.78195 72.9868084 640.172527 87.8356875 655.741196 103.636264 670.43264 120.342946 684.194076 137.906923 696.975445 156.276307 708.72959 175.396287 719.412425 195.209289 728.983101 215.655151 737.404153 236.671303 744.641646 258.19296 750.665305 280.153322 755.448631 302.483777 758.969014 325.11412 761.207825 347.972771 762.150503 370.987003 761.786619 394.083172 760.109939 417.186953 757.118465 440.223579 752.814466 463.118083 747.204491 485.795545 740.299376 508.18133 732.114227 530.201341 722.6684 551.782258 711.985453 572.851786 700.0931 593.338896 687.023136 613.174059 672.811362 632.289489 657.497483 650.619368 641.125004 668.100073 623.741108 684.670395 605.396517 700.271755 586.145354 714.848403 566.044975 728.347621 545.155805 740.719908 523.541156 751.919158 501.267034 761.902831 478.40194 770.632109 455.016658 778.072041 431.184037 784.191679 406.978765 788.964199 382.477131 792.367012 357.756792 794.381855 332.89652 794.994877 307.975952 794.196708 283.07534 791.982507 258.275287 788.352008 233.656488 783.309537 209.299467 776.864029 185.284318 769.029018 161.690433 759.822614 138.59625 749.267476 116.078983 737.390751 94.214373 724.224014 73.0764275 709.803187 52.7371741 694.168445 33.2664146 677.364101 14.7314871 659.438489 -2.80296549 640.443823 -19.2752197 620.436048 -34.6266865 599.474676 -48.8021182 577.622608 -61.7498039 554.94595 -73.421756 531.51381 -83.7738845 507.39809 -92.7661595 482.673264 -100.362761 457.416152 -106.532217 431.705676 -111.247527 405.622618 -114.486269 379.249364 -116.230698 352.669647 -116.467827 325.968274 -115.189486 299.230864 -112.392381 272.543569 -108.078119 245.992795 -102.253234 219.664926 -94.9291837 193.646042 -86.1223384 168.021634 -75.853951 142.87633 -64.1501109 118.293609 -51.0416821 94.35553 -36.5642253 71.1424532 -20.7579047 48.7327756 -3.66737923 27.2026641 14.6583215 6.6257986 34.1659363 -12.9268793 54.7981251 -31.3874097 76.4936367 -48.6910488 99.1874893 -64.7764943 122.811164 -79.5861008 147.292812 -93.0660835 172.557472 -105.166711 198.527296 -115.842486 225.121797 -125.05231 252.258089 -132.759642 279.851151 -138.932633 307.814092 -143.544254 336.058422 -146.572402 364.494336 -148 393.030998 -147.81507 421.576828 -146.010798 450.039803 -142.585578 478.327745 -137.543041 506.348627 -130.892067 534.010867 -122.646781 561.22363 -112.826526 587.897126 -101.455832 613.942905 -88.5643488 639.27415 -74.1867831 663.805966 -58.362801 687.455663 -41.1369247 710.143039 -22.5584086 731.790642 -2.68110047 752.324041 18.4367126 771.67208 40.7324743 789.767117 64.1395426 806.545267 88.5873886 821.946619 114.001808 835.915451 140.305145 848.400428 167.41653 859.354787 195.252129 868.736509 223.725399 876.508475 252.74736 882.638611 282.226872 887.100006 312.07092 889.871029 342.184909 890.935418 372.472964 890.282356 402.838234 887.906531 433.183202 883.808175 463.409998 877.993085 493.420715 870.472632 523.117726 861.263745 552.404004 850.388882 581.183432 837.875976 609.361125 823.758371 636.843742 808.074739 663.53979 790.868969 689.359932 772.190057 714.217284 752.091959 738.02771 730.633445 760.710099 707.877921 782.186647 683.89325 802.383118 658.751545 821.229103 632.528958 838.658262 605.305447 854.608552 577.16453 869.022453 548.193037 881.847167 518.480836 893.034809 488.120555 902.542585 457.207299 910.332949 425.838344 916.373745 394.112836 920.638334 362.131479 923.105706 329.99621 923.760565 297.80988 922.593403 265.67592 919.600558 233.698012 914.784245 201.979751 908.152575 170.624315 899.71955 139.734123 889.505043 109.410505 877.534759 79.7533678 863.84017 50.8608683 848.45844 22.8290862 831.432325 -4.24829344 812.810061 -30.2802927 792.645225 -55.1789464 770.996582 -78.8595977 747.927923 -101.241186 723.507868 -122.246521 697.809673 -141.802551 670.911002 -159.840613 642.893699 -176.29667 613.843541 -191.111541 583.849969 -204.231107 553.005818 -215.606508 521.407031 -225.194319 489.152356 -232.956714 456.343042 -238.861608 423.082519 -242.882784 389.476075 -245 355.630515"></polyline>
                    </g>
                    <circle id="Oval-Copy-4" fill="#CC001B" cx="371" cy="349.630515" r="136"></circle>
                    <g id="Candy" fill-rule="nonzero">
                        <use fill="black" fill-opacity="1" filter="url(#filter-4)" xlink:href="#path-3"></use>
                        <use fill="#FFFFFF" xlink:href="#path-3"></use>
                    </g>
                    <g id="Slider-Copy-4" fill-rule="nonzero">
                        <use fill="black" fill-opacity="1" filter="url(#filter-6)" xlink:href="#path-5"></use>
                        <use fill="#FFFFFF" xlink:href="#path-5"></use>
                    </g>
                </g>
            </g>
        </g>
    </g>
</svg>